{
  "accessors": [
    {
      "bufferView": 2,
      "componentType": 5126,
      "count": 2153,
      "max": [
        2.074575901031494,
        3.0060789585113525,
        6.315390110015869
      ],
      "min": [
        -2.067186117172241,
        -1.5816019773483276,
        0.49493101239204407
      ],
      "type": "VEC3"
    },
    {
      "bufferView": 2,
      "byteOffset": 25836,
      "componentType": 5126,
      "count": 2153,
      "max": [
        0.998308002948761,
        0.9954096078872681,
        0.9994599223136902
      ],
      "min": [
        -0.999859631061554,
        -0.9993712902069092,
        -0.9997738003730774
      ],
      "type": "VEC3"
    },
    {
      "bufferView": 3,
      "componentType": 5126,
      "count": 2153,
      "max": [
        0.9999897480010986,
        0.999230682849884,
        0.9979164004325867,
        1.0
      ],
      "min": [
        -0.9999725222587585,
        -0.999980628490448,
        -0.9864175319671631,
        -1.0
      ],
      "type": "VEC4"
    },
    {
      "bufferView": 1,
      "componentType": 5126,
      "count": 2153,
      "max": [
        1.0,
        1.0
      ],
      "min": [
        0.0,
        0.0
      ],
      "type": "VEC2"
    },
    {
      "bufferView": 0,
      "componentType": 5125,
      "count": 7281,
      "type": "SCALAR"
    }
  ],
  "asset": {
    "extras": {
      "author": "Efarys (https://sketchfab.com/Efarys)",
      "license": "CC-BY-4.0 (http://creativecommons.org/licenses/by/4.0/)",
      "source": "https://sketchfab.com/3d-models/inquisitors-helmet-de59443d3e6344d8b2d51936ce5a91d9",
      "title": "Inquisitor's Helmet"
    },
    "generator": "Sketchfab-12.67.0",
    "version": "2.0"
  },
  "bufferViews": [
    {
      "buffer": 0,
      "byteLength": 29124,
      "name": "floatBufferViews",
      "target": 34963
    },
    {
      "buffer": 0,
      "byteLength": 17224,
      "byteOffset": 29124,
      "byteStride": 8,
      "name": "floatBufferViews",
      "target": 34962
    },
    {
      "buffer": 0,
      "byteLength": 51672,
      "byteOffset": 46348,
      "byteStride": 12,
      "name": "floatBufferViews",
      "target": 34962
    },
    {
      "buffer": 0,
      "byteLength": 34448,
      "byteOffset": 98020,
      "byteStride": 16,
      "name": "floatBufferViews",
      "target": 34962
    }
  ],
  "buffers": [
    {
      "byteLength": 132468,
      "uri": "scene.bin"
    }
  ],
  "images": [
    {
      "uri": "textures/Default_OBJ.002_baseColor.jpeg"
    },
    {
      "uri": "textures/Default_OBJ.002_metallicRoughness.png"
    },
    {
      "uri": "textures/Default_OBJ.002_normal.png"
    }
  ],
  "materials": [
    {
      "doubleSided": true,
      "name": "Default_OBJ.002",
      "normalTexture": {
        "index": 2
      },
      "occlusionTexture": {
        "index": 1
      },
      "pbrMetallicRoughness": {
        "baseColorTexture": {
          "index": 0
        },
        "metallicRoughnessTexture": {
          "index": 1
        }
      }
    }
  ],
  "meshes": [
    {
      "name": "Object_0",
      "primitives": [
        {
          "attributes": {
            "NORMAL": 1,
            "POSITION": 0,
            "TANGENT": 2,
            "TEXCOORD_0": 3
          },
          "indices": 4,
          "material": 0,
          "mode": 4
        }
      ]
    }
  ],
  "nodes": [
    {
      "children": [
        1
      ],
      "matrix": [
        1.0,
        0.0,
        0.0,
        0.0,
        0.0,
        2.220446049250313e-16,
        -1.0,
        0.0,
        0.0,
        1.0,
        2.220446049250313e-16,
        0.0,
        0.0,
        0.0,
        0.0,
        1.0
      ],
      "name": "Sketchfab_model"
    },
    {
      "children": [
        2
      ],
      "name": "cb332d826c984e2cb0a08d46002e20a9.obj.cleaner.materialmerger.gles"
    },
    {
      "mesh": 0,
      "name": "Object_2"
    }
  ],
  "samplers": [
    {
      "magFilter": 9729,
      "minFilter": 9987,
      "wrapS": 10497,
      "wrapT": 10497
    }
  ],
  "scene": 0,
  "scenes": [
    {
      "name": "Sketchfab_Scene",
      "nodes": [
        0
      ]
    }
  ],
  "textures": [
    {
      "sampler": 0,
      "source": 0
    },
    {
      "sampler": 0,
      "source": 1
    },
    {
      "sampler": 0,
      "source": 2
    }
  ]
}
