{
  "accessors": [
    {
      "bufferView": 2,
      "componentType": 5126,
      "count": 1222,
      "max": [
        12.036800384521484,
        20.010608673095703,
        12.074431419372559
      ],
      "min": [
        -12.036808013916016,
        0.07413800060749054,
        -11.951680183410645
      ],
      "type": "VEC3"
    },
    {
      "bufferView": 2,
      "byteOffset": 14664,
      "componentType": 5126,
      "count": 1222,
      "max": [
        1.0,
        1.0,
        1.0
      ],
      "min": [
        -1.0,
        0.0,
        -0.9980267882347107
      ],
      "type": "VEC3"
    },
    {
      "bufferView": 1,
      "componentType": 5126,
      "count": 1222,
      "max": [
        0.65625,
        0.9996920228004456
      ],
      "min": [
        0.34375,
        0.3125
      ],
      "type": "VEC2"
    },
    {
      "bufferView": 0,
      "componentType": 5125,
      "count": 5550,
      "type": "SCALAR"
    },
    {
      "bufferView": 2,
      "byteOffset": 29328,
      "componentType": 5126,
      "count": 3539,
      "max": [
        12.036800384521484,
        16.136079788208008,
        12.074431419372559
      ],
      "min": [
        -12.036808013916016,
        0.07413800060749054,
        -11.951680183410645
      ],
      "type": "VEC3"
    },
    {
      "bufferView": 2,
      "byteOffset": 71796,
      "componentType": 5126,
      "count": 3539,
      "max": [
        0.9997259378433228,
        0.9999994039535522,
        0.9171320199966431
      ],
      "min": [
        -0.9998949766159058,
        -1.0,
        -0.42544037103652954
      ],
      "type": "VEC3"
    },
    {
      "bufferView": 1,
      "byteOffset": 9776,
      "componentType": 5126,
      "count": 3539,
      "max": [
        1.0,
        1.0
      ],
      "min": [
        0.0,
        0.0
      ],
      "type": "VEC2"
    },
    {
      "bufferView": 0,
      "byteOffset": 22200,
      "componentType": 5125,
      "count": 16122,
      "type": "SCALAR"
    },
    {
      "bufferView": 2,
      "byteOffset": 114264,
      "componentType": 5126,
      "count": 372,
      "max": [
        7.9251508712768555,
        16.04893684387207,
        11.661832809448242
      ],
      "min": [
        -8.075738906860352,
        1.4933470487594604,
        8.36017894744873
      ],
      "type": "VEC3"
    },
    {
      "bufferView": 2,
      "byteOffset": 118728,
      "componentType": 5126,
      "count": 372,
      "max": [
        0.4251750707626343,
        0.00030500011052936316,
        0.9997113347053528
      ],
      "min": [
        -0.4251750707626343,
        8.000000889296643e-06,
        0.9051111340522766
      ],
      "type": "VEC3"
    },
    {
      "bufferView": 1,
      "byteOffset": 38088,
      "componentType": 5126,
      "count": 372,
      "max": [
        1.0,
        1.0
      ],
      "min": [
        -0.0,
        0.0
      ],
      "type": "VEC2"
    },
    {
      "bufferView": 0,
      "byteOffset": 86688,
      "componentType": 5125,
      "count": 1098,
      "type": "SCALAR"
    }
  ],
  "asset": {
    "extras": {
      "author": "Adam Keller (https://sketchfab.com/adamkeller18)",
      "license": "CC-BY-4.0 (http://creativecommons.org/licenses/by/4.0/)",
      "source": "https://sketchfab.com/3d-models/marshmello-helmet-textured-3006a337592c4d0e8dbf9284fcc10141",
      "title": "Marshmello Helmet Textured"
    },
    "generator": "Sketchfab-12.68.0",
    "version": "2.0"
  },
  "bufferViews": [
    {
      "buffer": 0,
      "byteLength": 91080,
      "name": "floatBufferViews",
      "target": 34963
    },
    {
      "buffer": 0,
      "byteLength": 41064,
      "byteOffset": 91080,
      "byteStride": 8,
      "name": "floatBufferViews",
      "target": 34962
    },
    {
      "buffer": 0,
      "byteLength": 123192,
      "byteOffset": 132144,
      "byteStride": 12,
      "name": "floatBufferViews",
      "target": 34962
    }
  ],
  "buffers": [
    {
      "byteLength": 255336,
      "uri": "scene.bin"
    }
  ],
  "materials": [
    {
      "doubleSided": true,
      "name": "blinn5",
      "pbrMetallicRoughness": {
        "metallicFactor": 0.0,
        "roughnessFactor": 0.9394373617831397
      }
    },
    {
      "doubleSided": true,
      "name": "blinn4SG1",
      "pbrMetallicRoughness": {
        "metallicFactor": 0.0,
        "roughnessFactor": 0.9317124296766026
      }
    },
    {
      "doubleSided": true,
      "name": "lambert2",
      "pbrMetallicRoughness": {
        "baseColorFactor": [
          0.051,
          0.051,
          0.051,
          1.0
        ],
        "metallicFactor": 0.0,
        "roughnessFactor": 0.6
      }
    }
  ],
  "meshes": [
    {
      "name": "default1_blinn5_0",
      "primitives": [
        {
          "attributes": {
            "NORMAL": 1,
            "POSITION": 0,
            "TEXCOORD_0": 2
          },
          "indices": 3,
          "material": 0,
          "mode": 4
        }
      ]
    },
    {
      "name": "default1_blinn4SG1_0",
      "primitives": [
        {
          "attributes": {
            "NORMAL": 5,
            "POSITION": 4,
            "TEXCOORD_0": 6
          },
          "indices": 7,
          "material": 1,
          "mode": 4
        }
      ]
    },
    {
      "name": "default1_lambert2_0",
      "primitives": [
        {
          "attributes": {
            "NORMAL": 9,
            "POSITION": 8,
            "TEXCOORD_0": 10
          },
          "indices": 11,
          "material": 2,
          "mode": 4
        }
      ]
    }
  ],
  "nodes": [
    {
      "children": [
        1
      ],
      "matrix": [
        1.0,
        0.0,
        0.0,
        0.0,
        0.0,
        2.220446049250313e-16,
        -1.0,
        0.0,
        0.0,
        1.0,
        2.220446049250313e-16,
        0.0,
        0.0,
        0.0,
        0.0,
        1.0
      ],
      "name": "Sketchfab_model"
    },
    {
      "children": [
        2
      ],
      "matrix": [
        1.0,
        0.0,
        0.0,
        0.0,
        0.0,
        0.0,
        1.0,
        0.0,
        0.0,
        -1.0,
        0.0,
        0.0,
        0.0,
        0.0,
        0.0,
        1.0
      ],
      "name": "4a15b23c7ea44a60af21f377d6a7af38.fbx"
    },
    {
      "children": [
        3
      ],
      "name": "RootNode"
    },
    {
      "children": [
        4,
        5,
        6
      ],
      "name": "default1"
    },
    {
      "mesh": 0,
      "name": "default1_blinn5_0"
    },
    {
      "mesh": 1,
      "name": "default1_blinn4SG1_0"
    },
    {
      "mesh": 2,
      "name": "default1_lambert2_0"
    }
  ],
  "scene": 0,
  "scenes": [
    {
      "name": "Sketchfab_Scene",
      "nodes": [
        0
      ]
    }
  ]
}
